<?xml version="1.0" standalone="no"?><!DOCTYPE svg PUBLIC "-//W3C//DTD SVG 1.1//EN" "http://www.w3.org/Graphics/SVG/1.1/DTD/svg11.dtd"><svg t="1710841079588" class="icon" viewBox="0 0 1024 1024" version="1.1" xmlns="http://www.w3.org/2000/svg" p-id="1143" xmlns:xlink="http://www.w3.org/1999/xlink" width="200" height="200"><path d="M27.428571 365.714286h256v658.285714h-256z" p-id="1144"></path><path d="M155.428571 859.428571m-73.142857 0a73.142857 73.142857 0 1 0 146.285715 0 73.142857 73.142857 0 1 0-146.285715 0Z" p-id="1145"></path><path d="M978.285714 475.428571a73.142857 73.142857 0 0 0-73.142857-73.142857H619.849143l18.066286-84.461714c13.787429-64.438857 10.093714-142.976 1.901714-198.144C631.625143 64.512 582.217143 0 530.523429 0h-4.370286C482.084571 0 466.285714 48.621714 466.285714 109.714286c0 297.142857-146.285714 292.571429-146.285714 292.571428h-36.571429v585.142857h530.285715a73.142857 73.142857 0 0 0 0-146.285714h54.857143a73.142857 73.142857 0 0 0 0-146.285714h54.857142a73.142857 73.142857 0 0 0 73.142858-73.142857c0-45.586286-29.494857-62.939429-73.142858-69.412572-21.266286-3.163429-59.904-3.730286-73.142857-3.730285h54.857143a73.142857 73.142857 0 0 0 73.142857-73.142858z" p-id="1146"></path><path d="M953.051429 530.285714H722.285714a18.285714 18.285714 0 1 0 0 36.571429h246.052572c-12.013714-7.369143-27.209143-11.940571-44.909715-14.555429-21.266286-3.163429-59.904-3.730286-73.142857-3.730285h54.857143a72.466286 72.466286 0 0 0 47.908572-18.285715zM971.337143 676.571429H722.285714a18.285714 18.285714 0 1 0 0 36.571428h194.212572a72.521143 72.521143 0 0 0-47.926857-18.285714h54.857142a72.466286 72.466286 0 0 0 47.908572-18.285714zM916.48 822.857143H685.714286a18.285714 18.285714 0 1 0 0 36.571428h175.926857a72.521143 72.521143 0 0 0-47.926857-18.285714h54.857143a72.466286 72.466286 0 0 0 47.908571-18.285714z" p-id="1147"></path></svg>